# xmcd CD database file
#
# Track frame offsets:
#	150
#	9969
#	22829
#	37761
#	54090
#	68806
#	85323
#	97498
#	108866
#	121217
#	132662
#	150255
#	157195
#	172106
#	182967
#	194701
#
# Disc length: 2796 seconds
#
# Revision: 0
# Processed by: cddbd v1.5.2PL0 Copyright (c) Steve Scherf et al.
# Submitted via: CDex 1.70beta2
#
DISCID=d00aea10
DTITLE=Martin Žák a Stará almara - Písně ze stařičké stodoly
DYEAR=1900
DGENRE=Country
TTITLE0=Roztomilá Betsy
TTITLE1=Vojákovo potěšení
TTITLE2=O té Irské rebélii
TTITLE3=Lení jablíčko
TTITLE4=Slepičí rej
TTITLE5=Arkansaský cestovatel
TTITLE6=Rudá peruť
TTITLE7=Starej Dan
TTITLE8=Ach ty zlaté střevíčky
TTITLE9=Rachel
TTITLE10=Drž mě víc
TTITLE11=Nejstarší slepička
TTITLE12=Ústup Bonapartův
TTITLE13=Zlatej vrch
TTITLE14=Dřevař od Mississippi
TTITLE15=Reubenův vlak
EXTD=
EXTT0=
EXTT1=
EXTT2=
EXTT3=
EXTT4=
EXTT5=
EXTT6=
EXTT7=
EXTT8=
EXTT9=
EXTT10=
EXTT11=
EXTT12=
EXTT13=
EXTT14=
EXTT15=
PLAYORDER=
